<?xml version="1.0" encoding="utf-8" standalone="yes"?>
<!DOCTYPE svg PUBLIC "-//W3C//DTD SVG 1.1//EN" "http://www.w3.org/Graphics/SVG/1.1/DTD/svg11.dtd">
<svg width="685" height="502" viewBox="0 0 685 502" style="fill:none;stroke:none;fill-rule:evenodd;clip-rule:evenodd;stroke-linecap:round;stroke-linejoin:round;stroke-miterlimit:1.5;" version="1.1" xmlns="http://www.w3.org/2000/svg" xmlns:xlink="http://www.w3.org/1999/xlink"><style class="text-font-style fontImports" data-font-family="Roboto">@import url('https://fonts.googleapis.com/css2?family=Roboto:wght@400;700&amp;display=block');</style><g id="items" style="isolation: isolate"><g id="blend" style="mix-blend-mode: normal"><g id="g-root-sy_5_cu_1urswy6kv9fcy-fill" data-item-order="-64850" transform="translate(62, 302)"><g id="sy_5_cu_1urswy6kv9fcy-fill" stroke="none" fill="#69425a"><g><path d="M 38.3896 16.3626C 52.9728 11.2737 70.1232 10 82 10C 93.8806 10 111.03 11.2735 125.612 16.3619C 130.261 17.984 134.648 19.9937 138.521 22.4734C 147.71 28.3574 154 36.8877 154 49.1641C 154 82.9093 106.6676 88.2344 82 88.2344C 57.4378 88.2344 10 82.7685 10 49.1641C 10 36.8495 16.331 28.3043 25.5679 22.4185C 29.4194 19.9644 33.776 17.9726 38.3896 16.3626ZM 82 82C 57.1472 82 37 75.9558 37 68.5C 37 67.2533 37.5633 66.0461 38.6177 64.9C 43.8692 59.1919 61.3028 55 82 55C 102.6972 55 120.131 59.1919 125.382 64.9C 126.437 66.0461 127 67.2533 127 68.5C 127 75.9558 106.8528 82 82 82ZM 125.3823 64.9C 126.4367 66.0461 127 67.2533 127 68.5C 127 75.9558 106.8528 82 82 82C 57.1472 82 37 75.9558 37 68.5C 37 67.2533 37.5633 66.0461 38.6177 64.9C 43.8692 59.1919 61.3028 55 82 55C 102.6972 55 120.1308 59.1919 125.3823 64.9Z"></path></g></g></g><g id="g-root-sy_2_cu_1hgcekukv9gxv-fill" data-item-order="-64846" transform="translate(38, 218)"><g id="sy_2_cu_1hgcekukv9gxv-fill" stroke="none" fill="#68403f"><g><path d="M 166 88C 166 86.3377 165.249 84.7281 163.843 83.2C 156.841 75.5892 133.5963 70 106 70C 78.4038 70 55.1589 75.5892 48.1569 83.2C 46.7511 84.7281 46 86.3377 46 88C 46 92.7873 52.2296 97.1381 62.3896 100.3626C 76.9728 95.2737 94.1232 94 106 94C 117.8806 94 135.0305 95.2735 149.612 100.3619C 159.771 97.1375 166 92.787 166 88ZM 163.843 83.2C 165.249 84.7281 166 86.3377 166 88C 166 92.787 159.771 97.1375 149.612 100.3619C 154.261 101.984 158.648 103.9937 162.521 106.4734C 184.167 99.3457 202 86.1359 202 62.2188C 202 43.1964 190.673 30.9199 175.116 23.0874C 169.382 20.2005 163.074 17.9173 156.546 16.1227C 138.975 11.2916 119.815 10 106 10C 92.1888 10 73.0291 11.2918 55.4565 16.1234C 48.9764 17.9051 42.7122 20.1682 37.0116 23.0253C 21.3896 30.855 10 43.1462 10 62.2188C 10 86.0481 27.8903 99.2655 49.5679 106.4185C 53.4194 103.9644 57.776 101.9726 62.3896 100.3626C 52.2296 97.1381 46 92.7873 46 88C 46 86.3377 46.7511 84.7281 48.1569 83.2C 55.1589 75.5892 78.4037 70 106 70C 133.596 70 156.841 75.5892 163.843 83.2Z"></path></g></g></g><g id="g-root-sy_1_cu_145idamkv9fd0-fill" data-item-order="-64842" transform="translate(14, 110)"><g id="sy_1_cu_145idamkv9fd0-fill" stroke="none" fill="#5c4938"><g><path d="M 205 107.5C 205 105.4222 204.061 103.4102 202.304 101.5C 193.551 91.9864 164.495 85 130 85C 95.5047 85 66.4486 91.9864 57.6962 101.5C 55.9388 103.4102 55 105.4222 55 107.5C 55 114.0847 64.4286 120.0088 79.4565 124.1234C 97.0291 119.2918 116.1888 118 130 118C 143.8155 118 162.975 119.2916 180.546 124.1227C 195.573 120.008 205 114.0843 205 107.5ZM 202.304 101.5C 204.061 103.4102 205 105.4222 205 107.5C 205 114.084 195.573 120.008 180.546 124.123C 187.074 125.917 193.382 128.2 199.116 131.087C 226.861 122.3 250 105.7333 250 75.2734C 250 49.3826 233.213 33.4891 211.092 23.8787C 203.417 20.5441 195.099 17.966 186.618 15.9891C 166.548 11.311 145.562 10 130 10C 114.443 10 93.4567 11.3112 73.3854 15.99C 64.9643 17.953 56.7043 20.5088 49.0738 23.8093C 26.8718 33.4126 10 49.3203 10 75.2734C 10 105.6269 33.2219 122.206 61.0116 131.025C 66.7122 128.168 72.9764 125.905 79.4565 124.123C 64.4286 120.009 55 114.085 55 107.5C 55 105.4222 55.9388 103.4102 57.6962 101.5C 66.4486 91.9864 95.5047 85 130 85C 164.495 85 193.551 91.9864 202.304 101.5Z"></path></g></g></g><g id="g-root-tx_youtubec_1lqjq32kvhwqy-fill" data-item-order="0" transform="translate(212, 38)"><g id="tx_youtubec_1lqjq32kvhwqy-fill" stroke="none" fill="#f4f4f4"><g><text style="font: bold 25px Roboto, sans-serif; white-space: pre;" font-weight="bold" font-size="25px" font-family="Roboto, sans-serif"><tspan x="12.76" y="42.6" dominant-baseline="ideographic">YouTube CTR Funnel</tspan></text></g></g></g><g id="g-root-ic_2_254nikv6mtg-fill" data-item-order="0" transform="translate(278.0047912597656, 110)"></g><g id="g-root-tx_viewersc_dj7tn2kv9fd2-fill" data-item-order="0" transform="translate(350, 122)"><g id="tx_viewersc_dj7tn2kv9fd2-fill" stroke="none" fill="#f79438"><g><text style="font: bold 20px Roboto, sans-serif; white-space: pre;" font-weight="bold" font-size="20px" font-family="Roboto, sans-serif"><tspan x="12" y="34" dominant-baseline="ideographic">Viewers Click</tspan></text></g></g></g><g id="g-root-tx_viewersd_v9vd1qkv9g5p-fill" data-item-order="0" transform="translate(350.396484375, 157.51556396484375)"><g id="tx_viewersd_v9vd1qkv9g5p-fill" stroke="none" fill="#f4f4f4"><g><text style="font: 15px Roboto, sans-serif; white-space: pre;" font-size="15px" font-family="Roboto, sans-serif"><tspan x="12" y="30.6" dominant-baseline="ideographic">Viewers decide to click on the video</tspan></text></g></g></g><g id="g-root-ic_imgu_1480csukv2g3p-fill" data-item-order="0" transform="translate(278.0047912597656, 230)"></g><g id="g-root-tx_algorith_1utoc7ikv9edc-fill" data-item-order="0" transform="translate(350, 242)"><g id="tx_algorith_1utoc7ikv9edc-fill" stroke="none" fill="#fb6762"><g><text style="font: bold 20px Roboto, sans-serif; white-space: pre;" font-weight="bold" font-size="20px" font-family="Roboto, sans-serif"><tspan x="12" y="34" dominant-baseline="ideographic">Algorithm Boost</tspan></text></g></g></g><g id="g-root-tx_youtubes_4nkte6kv9g5r-fill" data-item-order="0" transform="translate(350.396484375, 277.513671875)"><g id="tx_youtubes_4nkte6kv9g5r-fill" stroke="none" fill="#f4f4f4"><g><text style="font: 15px Roboto, sans-serif; white-space: pre;" font-size="15px" font-family="Roboto, sans-serif"><tspan x="12" y="27.6" dominant-baseline="ideographic">YouTube's algorithm recognizes the video's </tspan><tspan x="12" y="45.6" dominant-baseline="ideographic">appeal</tspan></text></g></g></g><g id="g-root-ic_watc_vbqsb2kv9f63-fill" data-item-order="0" transform="translate(278.0047912597656, 350)"></g><g id="g-root-tx_moreview_147dsjykv9ede-fill" data-item-order="0" transform="translate(350, 362)"><g id="tx_moreview_147dsjykv9ede-fill" stroke="none" fill="#f366bb"><g><text style="font: bold 20px Roboto, sans-serif; white-space: pre;" font-weight="bold" font-size="20px" font-family="Roboto, sans-serif"><tspan x="12" y="34" dominant-baseline="ideographic">More Viewers</tspan></text></g></g></g><g id="g-root-tx_thevideo_1hi7tu6kv9fy9-fill" data-item-order="0" transform="translate(350.396484375, 397.51373291015625)"><g id="tx_thevideo_1hi7tu6kv9fy9-fill" stroke="none" fill="#f4f4f4"><g><text style="font: 15px Roboto, sans-serif; white-space: pre;" font-size="15px" font-family="Roboto, sans-serif"><tspan x="12" y="27.6" dominant-baseline="ideographic">The video gains more views due to </tspan><tspan x="12" y="45.6" dominant-baseline="ideographic">increased visibility</tspan></text></g></g></g><g id="g-root-sy_5_cu_1urswy6kv9fcy-stroke" data-item-order="-64850" transform="translate(62, 302)"><g id="sy_5_cu_1urswy6kv9fcy-stroke" fill="none" stroke-linecap="round" stroke-linejoin="round" stroke-miterlimit="4" stroke="#f366bb" stroke-width="2"><g><path d="M 38.3896 16.3626C 52.9728 11.2737 70.1232 10 82 10C 93.8806 10 111.0305 11.2735 125.6124 16.3619C 130.2607 17.984 134.6481 19.9937 138.5206 22.4734C 147.7096 28.3574 154 36.8877 154 49.1641C 154 82.9093 106.6676 88.2344 82 88.2344C 57.4378 88.2344 10 82.7685 10 49.1641C 10 36.8495 16.331 28.3043 25.5679 22.4185C 29.4194 19.9644 33.776 17.9726 38.3896 16.3626ZM 82 82C 57.1472 82 37 75.9558 37 68.5C 37 67.2533 37.5633 66.0461 38.6177 64.9C 43.8692 59.1919 61.3028 55 82 55C 102.6972 55 120.1308 59.1919 125.3823 64.9C 126.4367 66.0461 127 67.2533 127 68.5C 127 75.9558 106.8528 82 82 82ZM 125.3823 64.9C 126.4367 66.0461 127 67.2533 127 68.5C 127 75.9558 106.8528 82 82 82C 57.1472 82 37 75.9558 37 68.5C 37 67.2533 37.5633 66.0461 38.6177 64.9C 43.8692 59.1919 61.3028 55 82 55C 102.6972 55 120.1308 59.1919 125.3823 64.9Z"></path></g></g></g><g id="g-root-sy_2_cu_1hgcekukv9gxv-stroke" data-item-order="-64846" transform="translate(38, 218)"><g id="sy_2_cu_1hgcekukv9gxv-stroke" fill="none" stroke-linecap="round" stroke-linejoin="round" stroke-miterlimit="4" stroke="#fb6762" stroke-width="2"><g><path d="M 166 88C 166 86.3377 165.2489 84.7281 163.8431 83.2C 156.8411 75.5892 133.5962 70 106 70C 78.4038 70 55.1589 75.5892 48.1569 83.2C 46.7511 84.7281 46 86.3377 46 88C 46 92.7873 52.2296 97.1381 62.3896 100.3626C 76.9728 95.2737 94.1232 94 106 94C 117.8806 94 135.0305 95.2735 149.6124 100.3619C 159.7712 97.1375 166 92.787 166 88ZM 163.8431 83.2C 165.2489 84.7281 166 86.3377 166 88C 166 92.787 159.7712 97.1375 149.6124 100.3619C 154.2607 101.984 158.6481 103.9937 162.5206 106.4734C 184.1675 99.3457 202 86.1359 202 62.2188C 202 43.1964 190.6728 30.9199 175.1161 23.0874C 169.3823 20.2005 163.0739 17.9173 156.5464 16.1227C 138.975 11.2916 119.8155 10 106 10C 92.1888 10 73.0291 11.2918 55.4565 16.1234C 48.9764 17.9051 42.7122 20.1682 37.0116 23.0253C 21.3896 30.855 10 43.1462 10 62.2188C 10 86.0481 27.8903 99.2655 49.5679 106.4185C 53.4194 103.9644 57.776 101.9726 62.3896 100.3626C 52.2296 97.1381 46 92.7873 46 88C 46 86.3377 46.7511 84.7281 48.1569 83.2C 55.1589 75.5892 78.4038 70 106 70C 133.5962 70 156.8411 75.5892 163.8431 83.2Z"></path></g></g></g><g id="g-root-sy_1_cu_145idamkv9fd0-stroke" data-item-order="-64842" transform="translate(14, 110)"><g id="sy_1_cu_145idamkv9fd0-stroke" fill="none" stroke-linecap="round" stroke-linejoin="round" stroke-miterlimit="4" stroke="#f79438" stroke-width="2"><g><path d="M 205 107.5C 205 105.4222 204.0612 103.4102 202.3038 101.5C 193.5514 91.9864 164.4953 85 130 85C 95.5047 85 66.4486 91.9864 57.6962 101.5C 55.9388 103.4102 55 105.4222 55 107.5C 55 114.0847 64.4286 120.0088 79.4565 124.1234C 97.0291 119.2918 116.1888 118 130 118C 143.8155 118 162.975 119.2916 180.5464 124.1227C 195.5726 120.008 205 114.0843 205 107.5ZM 202.3038 101.5C 204.0612 103.4102 205 105.4222 205 107.5C 205 114.0843 195.5726 120.008 180.5464 124.1227C 187.0739 125.9173 193.3823 128.2005 199.1161 131.0874C 226.8613 122.2997 250 105.7333 250 75.2734C 250 49.3826 233.2127 33.4891 211.0921 23.8787C 203.4167 20.5441 195.0993 17.966 186.6182 15.9891C 166.5482 11.311 145.5619 10 130 10C 114.4428 10 93.4567 11.3112 73.3854 15.99C 64.9643 17.953 56.7042 20.5088 49.0738 23.8093C 26.8718 33.4126 10 49.3203 10 75.2734C 10 105.6269 33.2219 122.2058 61.0116 131.0253C 66.7122 128.1682 72.9764 125.9051 79.4565 124.1234C 64.4286 120.0088 55 114.0847 55 107.5C 55 105.4222 55.9388 103.4102 57.6962 101.5C 66.4486 91.9864 95.5047 85 130 85C 164.4953 85 193.5514 91.9864 202.3038 101.5Z"></path></g></g></g><g id="g-root-tx_youtubec_1lqjq32kvhwqy-stroke" data-item-order="0" transform="translate(212, 38)"></g><g id="g-root-ic_2_254nikv6mtg-stroke" data-item-order="0" transform="translate(278.0047912597656, 110)"><g id="ic_2_254nikv6mtg-stroke" fill="none" stroke-linecap="round" stroke-linejoin="round" stroke-miterlimit="4" stroke="#f79438" stroke-width="2"><g><path d="M 10 10M 32.257175 30.968906L 30.382765 47.295475C 30.33057 48.478958 31.352268 49.293278 32.466755 48.733334L 35.538452 47.394665L 38.804325 55.454861C 39.063896 56.107395 39.976006 56.500359 40.628342 56.240585L 46.078999 54.013206C 46.731335 53.753632 47.12429 52.841522 46.864517 52.188988L 43.598648 44.128792L 46.670338 42.790127C 47.744232 42.420959 47.837025 41.0467 47.005905 40.272976L 34.295376 29.808983C 33.804821 29.306591 32.499954 29.82576 32.257175 30.968906ZM 33.997604 11.673661L 33.997604 19.672853M 10 10M 19.199041 17.873234L 24.998442 23.472534M 12.999701 32.671535L 20.998901 32.671535M 10 10M 19.199041 47.470058L 24.998442 41.870819M 54.995506 32.671535L 46.996307 32.671535M 10 10M 48.996105 17.873234L 43.196686 23.472534"></path></g></g></g><g id="g-root-tx_viewersc_dj7tn2kv9fd2-stroke" data-item-order="0" transform="translate(350, 122)"></g><g id="g-root-tx_viewersd_v9vd1qkv9g5p-stroke" data-item-order="0" transform="translate(350.396484375, 157.51556396484375)"></g><g id="g-root-ic_imgu_1480csukv2g3p-stroke" data-item-order="0" transform="translate(278.0047912597656, 230)"><g id="ic_imgu_1480csukv2g3p-stroke" fill="none" stroke-linecap="round" stroke-linejoin="round" stroke-miterlimit="4" stroke="#fb6762" stroke-width="2"><g><path d="M 23.998602 43.996605C 26.026585 46.038837 28.558619 47.508385 31.33787 48.25618C 32.049309 48.467346 32.819183 48.267178 33.337669 47.736233L 44.996506 35.997406L 49.996006 41.0569C 51.027737 42.127594 52.554443 42.562706 53.995605 42.196785C 55.70924 41.696999 56.884239 40.122173 56.87532 38.33717L 56.87532 14.999501C 56.87532 12.790583 55.084637 10.9999 52.875721 10.9999L 29.658037 10.9999C 27.873035 10.990981 26.298208 12.165983 25.798422 13.879613C 25.432505 15.320777 25.867615 16.847483 26.938309 17.879213L 31.997803 22.998703L 20.258976 34.73753C 19.728027 35.256016 19.527861 36.02589 19.739027 36.737331C 20.499689 39.487926 21.968401 41.990944 23.998602 43.996605M 32.357769 15.439457C 32.140518 15.440928 31.945309 15.572461 31.862371 15.773261C 31.779432 15.974061 31.824917 16.205011 31.977806 16.359365L 37.977207 22.458755L 25.278475 35.23748C 24.728331 35.790733 24.577129 36.626312 24.898512 37.337269C 25.462002 38.613308 26.239832 39.783432 27.198282 40.796925C 28.211775 41.755375 29.381899 42.533203 30.657938 43.096695C 31.368895 43.418076 32.204475 43.266876 32.757729 42.716736L 45.536453 29.998003L 51.635841 35.997406C 51.790195 36.150295 52.021149 36.195778 52.221947 36.112843C 52.422749 36.0299 52.554279 35.834694 52.555752 35.617443L 52.555752 15.439457ZM 10.9999 56.995308L 10.9999 27.998203L 26.818321 12.179783M 10.9999 56.995308L 39.997005 56.995308L 55.815426 41.176888M 23.858616 21.498852L 23.858616 24.498552M 25.358467 22.998703L 22.358767 22.998703M 16.219379 29.038099L 16.219379 32.0378M 17.719229 30.537951L 14.719528 30.537951M 16.219379 41.436863L 16.219379 44.436562M 17.719229 42.93671L 14.719528 42.93671M 46.496357 44.136589L 43.496655 44.136589M 44.996506 42.636742L 44.996506 45.63644M 38.957108 51.775829L 35.957409 51.775829M 37.457256 50.275978L 37.457256 53.275677M 26.558346 51.775829L 23.558647 51.775829M 25.058496 50.275978L 25.058496 53.275677"></path></g></g></g><g id="g-root-tx_algorith_1utoc7ikv9edc-stroke" data-item-order="0" transform="translate(350, 242)"></g><g id="g-root-tx_youtubes_4nkte6kv9g5r-stroke" data-item-order="0" transform="translate(350.396484375, 277.513671875)"></g><g id="g-root-ic_watc_vbqsb2kv9f63-stroke" data-item-order="0" transform="translate(278.0047912597656, 350)"><g id="ic_watc_vbqsb2kv9f63-stroke" fill="none" stroke-linecap="round" stroke-linejoin="round" stroke-miterlimit="4" stroke="#f366bb" stroke-width="2"><g><path d="M 15.499451 43.496655C 15.499451 45.981689 17.513968 47.996204 19.999002 47.996204C 22.484034 47.996204 24.498552 45.981689 24.498552 43.496655C 24.498552 41.011623 22.484034 38.997105 19.999002 38.997105C 17.513968 38.997105 15.499451 41.011623 15.499451 43.496655ZM 28.998102 56.995308C 27.949133 52.881672 24.244278 50.002991 19.999002 50.002991C 15.753726 50.002991 12.04887 52.881672 10.9999 56.995308M 43.496655 43.496655C 43.496655 45.981689 45.511173 47.996204 47.996204 47.996204C 50.481239 47.996204 52.495758 45.981689 52.495758 43.496655C 52.495758 41.011623 50.481239 38.997105 47.996204 38.997105C 45.511173 38.997105 43.496655 41.011623 43.496655 43.496655ZM 38.997105 56.995308C 40.046078 52.881672 43.750931 50.002991 47.996204 50.002991C 52.241482 50.002991 55.946339 52.881672 56.995308 56.995308M 29.498053 41.496857C 29.498053 43.981892 31.512571 45.996407 33.997604 45.996407C 36.482635 45.996407 38.497154 43.981892 38.497154 41.496857C 38.497154 39.011822 36.482635 36.997303 33.997604 36.997303C 31.512571 36.997303 29.498053 39.011822 29.498053 41.496857ZM 41.82682 52.381771C 40.151512 49.666023 37.188515 48.012432 33.997601 48.012432C 30.80669 48.012432 27.843693 49.666023 26.168386 52.381767M 24.998503 10.9999L 21.998802 13.9996M 21.998802 10.9999L 24.998503 13.9996M 44.996506 12.999701L 41.996803 15.999401M 41.996803 12.999701L 44.996506 15.999401M 54.995506 20.998901L 51.995808 23.998602M 51.995808 20.998901L 54.995506 23.998602M 15.999401 17.999201L 12.999701 20.998901M 12.999701 17.999201L 15.999401 20.998901M 40.676937 32.053799C 42.281895 28.042074 45.303276 24.758827 49.168091 22.826719M 27.998203 13.9996L 28.786125 14.399561C 33.289909 16.650251 36.371105 21.002647 36.997303 25.998402L 36.997303 25.998402M 19.999002 19.999002L 19.999002 19.999002C 26.208149 21.240273 31.319838 25.631035 33.483654 31.581844L 33.997604 32.997704"></path></g></g></g><g id="g-root-tx_moreview_147dsjykv9ede-stroke" data-item-order="0" transform="translate(350, 362)"></g><g id="g-root-tx_thevideo_1hi7tu6kv9fy9-stroke" data-item-order="0" transform="translate(350.396484375, 397.51373291015625)"></g></g></g><path id="w4nkafyhtqio1" d="M65.283 12.757a.35.35 0 0 0 .584.157l5.203-5.141-6.183 3.523.396 1.461zm-2.216-11.7a.35.35 0 0 0-.522.305v3.111l3.276-1.868-2.754-1.548zm3.728 2.105l-4.25 2.421v2.445l6.391-3.644-2.141-1.222zm4.708 3.303a.35.35 0 0 0 0-.609l-1.592-.9-7.365 4.199v1.782a.35.35 0 0 0 .523.305l8.435-4.777z M44.542 2.513c0-.433.355-.783.792-.783s.792.35.792.783-.355.783-.792.783-.792-.35-.792-.783zm59.171 0c0-.433.355-.783.792-.783s.792.35.792.783-.355.783-.792.783-.792-.35-.792-.783zm-85.951 7.636h-1.27v-.487c-.276.201-.864.609-1.881.609-1.202 0-2.274-.794-2.137-2.078.118-1.106 1.153-1.584 1.848-1.727l2.17-.345c0-.539-.29-.956-1.064-1.006s-1.21.305-1.571 1.017l-1.124-.605c1.218-2.631 5.029-1.764 5.029.414v4.207zm-1.27-2.86c.006.396-.062 1.112-.819 1.59-.587.37-1.841.299-1.903-.395-.049-.555.461-.791.906-.898l1.816-.297zm72.662 2.86h-1.27v-.487c-.276.201-.864.609-1.881.609-1.202 0-2.274-.794-2.137-2.078.118-1.106 1.153-1.584 1.848-1.727l2.17-.345c0-.539-.29-.956-1.064-1.006s-1.21.305-1.571 1.017l-1.124-.605c1.218-2.631 5.029-1.764 5.029.414v4.207zm-1.27-2.86c.006.396-.062 1.112-.82 1.59-.587.37-1.841.299-1.903-.395-.049-.555.461-.791.906-.898l1.816-.297zM99.096 10.149H97.85v-8.45h1.246v4.895l2.68-2.559h1.738l-2.633 2.535 2.715 3.578h-1.556l-2.077-2.707-.867.844v1.863zm6.053-6.114h-1.255v6.113h1.255V4.035zm-59.2 0h-1.255v6.113h1.255V4.035zm5.584 6.113V1.697h1.255v2.695c.361-.346 1-.485 1.47-.485 1.452 0 2.477 1.082 2.457 2.448v3.792h-1.27v-3.68c0-.408-.214-1.339-1.315-1.339-.968 0-1.342.756-1.342 1.339v3.681h-1.255zm-4.76-4.894V4.039h.621a.45.45 0 0 0 .45-.45v-.855h1.251v1.305h1.309v1.215h-1.309v3.109c0 .293.105.664.648.664.365 0 .531-.035.736-.07v1.137s-.361.113-.857.113c-1.398 0-1.777-1.051-1.777-1.788V5.254h-1.071zM36.528 4.039h-1.394l2.191 6.106h1.125l1.234-3.918 1.238 3.918h1.129l2.188-6.106h-1.383l-1.359 3.93-1.256-3.93h-1.124l-1.242 3.957-1.348-3.957zM26.212 7.141c-.02 1.566 1.187 3.129 3.223 3.129 1.566 0 2.383-.918 2.734-1.719L31.172 8c-.315.399-.801 1.094-1.738 1.094-1.145 0-1.825-.781-1.891-1.52h4.625c.074-.284.148-.995-.03-1.559-.336-1.064-1.221-2.102-2.839-2.102s-3.088 1.152-3.088 3.227zm1.363-.75h3.348c-.055-.43-.566-1.301-1.623-1.301a1.79 1.79 0 0 0-1.725 1.301zm-8.758.75c.038 1.758 1.277 3.133 3.145 3.133 1.074 0 1.723-.477 1.961-.672v.547h1.242V1.703h-1.258v2.888c-.414-.36-1.062-.68-1.93-.68-1.91 0-3.198 1.473-3.16 3.23zm1.309-.08c0 1.119.723 1.978 1.836 1.978a1.88 1.88 0 0 0 1.94-1.904c0-1.371-1.011-1.99-1.972-1.99s-1.805.798-1.805 1.916zm76.683-.028C96.771 5.275 95.532 3.9 93.664 3.9c-1.074 0-1.723.477-1.961.672v-.547h-1.242v8.22h1.258V9.583c.414.36 1.063.68 1.93.68 1.91 0 3.198-1.473 3.16-3.23zm-1.309.08c0-1.119-.723-1.978-1.836-1.978a1.88 1.88 0 0 0-1.94 1.904c0 1.371 1.011 1.99 1.972 1.99S95.5 8.231 95.5 7.113zM106.441 10.173V4.036h1.254v.382c.361-.346 1-.485 1.47-.485 1.452 0 2.477 1.082 2.457 2.448v3.792h-1.27V6.492c0-.408-.214-1.339-1.315-1.339-.969 0-1.342.756-1.342 1.339v3.681h-1.254zm-30.383-.021V1.824h1.084l4.215 5.777V1.824h1.32v8.328h-1.094l-4.207-5.796v5.796h-1.319zM5.24 10.149H4V2.377h1.014l2.664 3.597 2.654-3.592h1.03v7.766h-1.256V4.762L7.678 8.068 5.24 4.742v5.407z" transform="translate(20, 467.51373291015625)" fill="#ababab88" stroke="none"></path></svg>