<?xml version="1.0" encoding="utf-8" standalone="yes"?>
<!DOCTYPE svg PUBLIC "-//W3C//DTD SVG 1.1//EN" "http://www.w3.org/Graphics/SVG/1.1/DTD/svg11.dtd">
<svg width="828" height="757" viewBox="0 0 828 757" style="fill:none;stroke:none;fill-rule:evenodd;clip-rule:evenodd;stroke-linecap:round;stroke-linejoin:round;stroke-miterlimit:1.5;" version="1.1" xmlns="http://www.w3.org/2000/svg" xmlns:xlink="http://www.w3.org/1999/xlink"><style class="text-font-style fontImports" data-font-family="Roboto">@import url('https://fonts.googleapis.com/css2?family=Roboto:wght@400;700&amp;display=block');</style><g id="items" style="isolation: isolate"><g id="blend" style="mix-blend-mode: normal"><g id="g-root-cp_0_g-0_1cwrp7zlp1729-fill" data-item-order="-514790" transform="translate(182, 212.95001220703125)"><g id="cp_0_g-0_1cwrp7zlp1729-fill" stroke="none" fill="#545454"><g><path d="M 224.9 49.32L 207.01 65.32L 183.21 59.44L 177.03 64.96L 200.83 70.84L 182.95 86.84L 159.15 80.96L 33.7947 192.8277C 33.9295 193.5478 34 194.2906 34 195.0498C 34 201.6772 28.6274 207.0498 22 207.0498C 15.3726 207.0498 10 201.6772 10 195.0498C 10 188.4224 15.3726 183.0498 22 183.0498C 23.3911 183.0498 24.7269 183.2865 25.9693 183.7218L 151.01 72.14L 147.77 47.52L 165.66 31.52L 168.9 56.14L 175.08 50.61L 171.83 26L 189.72 10L 193.89 41.66L 224.9 49.32Z"></path></g></g><g id="cp_0_g-0_1cwrp7zlp1729-fill" stroke="none" fill="#545454"><g><path d="M 273.003906 18.705337C 288.758206 40.022137 301.728706 63.521337 311.378506 88.666137C 311.817306 88.529937 312.260406 88.401537 312.707806 88.280937C 312.996906 88.201237 313.286106 88.131337 313.575206 88.061637L 313.577806 88.060937C 314.820406 87.760837 316.064406 87.529237 317.305706 87.363837C 307.324606 61.119737 293.801606 36.621337 277.320706 14.452637C 276.877406 14.969837 276.417006 15.477437 275.939506 15.974637L 275.409506 16.504637C 274.633406 17.280737 273.830806 18.015137 273.003906 18.705337ZM 334.605606 156.778037C 333.792506 157.079937 332.963006 157.354737 332.117706 157.600937C 331.858106 157.690837 331.598506 157.760737 331.338906 157.830737L 331.337806 157.830937C 330.481006 158.062837 329.621606 158.259137 328.763506 158.423637C 330.239506 170.425437 330.999506 182.648837 330.999506 195.049637C 330.999506 207.457537 330.238606 219.687637 328.761006 231.695937C 329.615706 231.860737 330.470406 232.058337 331.322706 232.289837C 331.582706 232.359837 331.832606 232.429837 332.092606 232.509837C 332.945706 232.758437 333.782806 233.035937 334.603006 233.341237C 336.184506 220.800037 336.999506 208.020037 336.999506 195.049637C 336.999506 182.086237 336.185406 169.312837 334.605606 156.778037ZM 317.296906 302.758637C 316.027006 302.589237 314.754106 302.350537 313.482706 302.039837C 313.286506 301.994637 313.084606 301.943637 312.885706 301.891237C 312.821006 301.874237 312.756506 301.857037 312.692706 301.839837C 312.247506 301.720237 311.806106 301.592937 311.369006 301.458037C 301.723606 326.584537 288.762106 350.067537 273.020606 371.371337C 273.857606 372.068537 274.671306 372.809937 275.454506 373.593137C 275.644506 373.783137 275.824506 373.963137 276.004506 374.153137C 276.465106 374.633537 276.909806 375.123537 277.338606 375.622637C 293.806506 353.466837 307.320206 328.984537 317.296906 302.758637Z"></path></g></g></g><g id="g-root-cp_4_g-4_mah5kflp172c-fill" data-item-order="-514784" transform="translate(38, 242.27996826171875)"><g id="cp_4_g-4_mah5kflp172c-fill" stroke="none" fill="#3e4e69"><g><path d="M 289.93 71.24L 271.98 87.3C 288.32 109.28 298 136.51 298 166C 298 238.9 238.9 298 166 298C 93.1 298 34 238.89 34 166C 34 93.11 93.1 34 166 34C 200.77 34 232.4 47.45 255.98 69.42L 273.93 53.36C 245.91 26.5 207.88 10 166 10C 79.84 10 10 79.83 10 166C 10 252.17 79.84 322 166 322C 252.16 322 322 252.16 322 166C 322 130.36 310.05 97.51 289.93 71.24Z"></path></g></g><g id="cp_4_g-4_mah5kflp172c-fill" stroke="none" fill="#3e4e69"><g><path d="M 419.455 395.173715C 405.395 409.233715 382.595 409.233715 368.545 395.173715C 354.485 381.113715 354.485 358.313715 368.545 344.263715C 381.325 331.473715 401.345 330.323715 415.435 340.793715C 416.835 341.833715 418.185 342.993715 419.455 344.263715C 419.645 344.453715 419.825 344.633715 420.005 344.823715C 433.515 358.913715 433.325 381.303715 419.455 395.173715Z"></path></g></g></g><g id="g-root-cp_3_g-3_1upanvzlp16vb-fill" data-item-order="-514778" transform="translate(74, 278.27996826171875)"><g id="cp_3_g-3_1upanvzlp16vb-fill" stroke="none" fill="#344e57"><g><path d="M 226.99 59.34L 208.99 75.44C 219.72 90.93 226 109.73 226 130C 226 183.02 183.02 226 130 226C 76.98 226 34 183.02 34 130C 34 76.98 76.98 34 130 34C 154.11 34 176.14 42.88 192.99 57.56L 210.99 41.46C 189.65 21.92 161.22 10 130 10C 63.73 10 10 63.73 10 130C 10 196.27 63.73 250 130 250C 196.27 250 250 196.27 250 130C 250 103.58 241.46 79.16 226.99 59.34Z"></path></g></g><g id="cp_3_g-3_1upanvzlp16vb-fill" stroke="none" fill="#344e57"><g><path d="M 464.7832 211.050415C 459.7032 230.000415 440.4332 241.340415 421.4832 236.710415C 421.2232 236.650415 420.9532 236.580415 420.6932 236.510415C 418.9432 236.040415 417.2532 235.450415 415.6432 234.750415C 399.5432 227.770415 390.5632 209.870415 395.2332 192.420415C 399.9132 174.940415 416.6731 163.930415 434.1231 165.960415C 435.8531 166.160415 437.5932 166.490415 439.3232 166.960415C 439.5832 167.030415 439.8332 167.100415 440.0932 167.180415C 458.8332 172.640415 469.8532 192.110415 464.7832 211.050415Z"></path></g></g></g><g id="g-root-cp_2_g-2_1cyn4hblp162q-fill" data-item-order="-514772" transform="translate(110, 290)"><g id="cp_2_g-2_1cyn4hblp162q-fill" stroke="none" fill="#3b5649"><g><path d="M 163.97 71.789785L 145.82 88.019785C 151.02 96.899785 154 107.239785 154 118.279785C 154 151.419785 127.14 178.279785 94 178.279785C 60.86 178.279785 34 151.419785 34 118.279785C 34 85.139785 60.86 58.279785 94 58.279785C 107.43 58.279785 119.82 62.689785 129.82 70.139785L 147.97 53.909785C 133.37 41.649785 114.55 34.279785 94 34.279785C 47.61 34.279785 10 71.889785 10 118.279785C 10 164.669785 47.61 202.279785 94 202.279785C 140.39 202.279785 178 164.669785 178 118.279785C 178 101.089785 172.84 85.099785 163.97 71.789785Z"></path></g></g><g id="cp_2_g-2_1cyn4hblp162q-fill" stroke="none" fill="#3b5649"><g><path d="M 404.118525 80.5513C 403.858525 80.6413 403.598525 80.7113 403.338525 80.7813C 401.638525 81.2413 399.928525 81.5613 398.238525 81.7713C 380.758525 83.8513 363.938525 72.8313 359.248525 55.3213C 354.558525 37.7913 363.638525 19.8113 379.878525 12.9013C 381.428525 12.2413 383.038525 11.6813 384.708525 11.2313C 384.998525 11.1513 385.288525 11.0813 385.578525 11.0113C 404.498525 6.4413 423.728525 17.7713 428.798525 36.6913C 433.868525 55.6313 422.858525 75.0913 404.118525 80.5513Z"></path></g></g></g><g id="g-root-cp_1_g-1_mccktrlp162t-fill" data-item-order="-514766" transform="translate(146, 158)"><g id="cp_1_g-1_mccktrlp162t-fill" stroke="none" fill="#4b533a"><g><path d="M 106 250.279785C 106 276.789785 84.51 298.279785 58 298.279785C 31.49 298.279785 10 276.789785 10 250.279785C 10 223.769785 31.49 202.279785 58 202.279785C 67.86 202.279785 77.03 205.249785 84.65 210.349785L 65.49 227.479785C 63.13 226.699785 60.62 226.279785 58 226.279785C 44.75 226.279785 34 237.029785 34 250.279785C 34 263.529785 44.75 274.279785 58 274.279785C 71.25 274.279785 82 263.529785 82 250.279785C 82 248.599785 81.83 246.949785 81.49 245.369785L 100.65 228.229785C 104.07 234.829785 106 242.329785 106 250.279785Z"></path></g></g><g id="cp_1_g-1_mccktrlp162t-fill" stroke="none" fill="#4b533a"><g><path d="M 311.940078 70.925L 311.410078 71.455C 310.150078 72.715 308.820078 73.865 307.430078 74.895C 293.330078 85.405 273.290078 84.255 260.500078 71.455C 246.440078 57.405 246.440078 34.605 260.500078 20.545C 274.550078 6.485 297.350078 6.485 311.410078 20.545C 325.290078 34.425 325.470078 56.835 311.940078 70.925Z"></path></g></g></g><g id="g-root-tx_understa_4l2kbzlp18g0-fill" data-item-order="0" transform="translate(236, 38)"><g id="tx_understa_4l2kbzlp18g0-fill" stroke="none" fill="#f4f4f4"><g><text style="font: bold 25px Roboto, sans-serif; white-space: pre;" font-weight="bold" font-size="25px" font-family="Roboto, sans-serif"><tspan x="16.11" y="42.6" dominant-baseline="ideographic">Understanding YouTube CTR</tspan></text></g></g></g><g id="g-root-tx_ctr_144vjhrlp15vt-fill" data-item-order="0" transform="translate(482, 146)"><g id="tx_ctr_144vjhrlp15vt-fill" stroke="none" fill="#a6da37"><g><text style="font: bold 20px Roboto, sans-serif; white-space: pre;" font-weight="bold" font-size="20px" font-family="Roboto, sans-serif"><tspan x="12" y="34" dominant-baseline="ideographic">CTR</tspan></text></g></g></g><g id="g-root-ic_4_5vpm7lp5ds1-fill" data-item-order="0" transform="translate(398, 170)"></g><g id="g-root-tx_theperce_1464hnzlp181u-fill" data-item-order="0" transform="translate(482, 182)"><g id="tx_theperce_1464hnzlp181u-fill" stroke="none" fill="#f4f4f4"><g><text style="font: 15px Roboto, sans-serif; white-space: pre;" font-size="15px" font-family="Roboto, sans-serif"><tspan x="12" y="27.6" dominant-baseline="ideographic">The percentage of viewers </tspan><tspan x="12" y="45.6" dominant-baseline="ideographic">clicking on a video</tspan></text></g></g></g><g id="g-root-ic_play_qqau0flp5ero-fill" data-item-order="0" transform="translate(470, 302)"></g><g id="g-root-tx_videothu_8zwq7lp16gz-fill" data-item-order="0" transform="translate(554, 294)"><g id="tx_videothu_8zwq7lp16gz-fill" stroke="none" fill="#43dd93"><g><text style="font: bold 20px Roboto, sans-serif; white-space: pre;" font-weight="bold" font-size="20px" font-family="Roboto, sans-serif"><tspan x="12" y="34" dominant-baseline="ideographic">Video Thumbnail</tspan></text></g></g></g><g id="g-root-tx_visualre_18ntf1rlp169w-fill" data-item-order="0" transform="translate(554, 330)"><g id="tx_visualre_18ntf1rlp169w-fill" stroke="none" fill="#f4f4f4"><g><text style="font: 15px Roboto, sans-serif; white-space: pre;" font-size="15px" font-family="Roboto, sans-serif"><tspan x="12" y="27.6" dominant-baseline="ideographic">Visual representation </tspan><tspan x="12" y="45.6" dominant-baseline="ideographic">influencing clicks</tspan></text></g></g></g><g id="g-root-ic_play_m98dprlp2lty-fill" data-item-order="0" transform="translate(470, 446.00006103515625)"></g><g id="g-root-tx_videotit_8vw9rjlp2ln1-fill" data-item-order="0" transform="translate(554, 442.00006103515625)"><g id="tx_videotit_8vw9rjlp2ln1-fill" stroke="none" fill="#1ac3fb"><g><text style="font: bold 20px Roboto, sans-serif; white-space: pre;" font-weight="bold" font-size="20px" font-family="Roboto, sans-serif"><tspan x="12" y="34" dominant-baseline="ideographic">Video Title</tspan></text></g></g></g><g id="g-root-tx_textattr_1haps33lp2lfy-fill" data-item-order="0" transform="translate(554, 478.00006103515625)"><g id="tx_textattr_1haps33lp2lfy-fill" stroke="none" fill="#f4f4f4"><g><text style="font: 15px Roboto, sans-serif; white-space: pre;" font-size="15px" font-family="Roboto, sans-serif"><tspan x="12" y="30.6" dominant-baseline="ideographic">Text attracting viewer attention</tspan></text></g></g></g><g id="g-root-ic_1_qqanovlp2kg9-fill" data-item-order="0" transform="translate(398, 578.0000610351562)"></g><g id="g-root-tx_audience_dcyq27lp2n0v-fill" data-item-order="0" transform="translate(482, 578.0000610351562)"><g id="tx_audience_dcyq27lp2n0v-fill" stroke="none" fill="#4f91fc"><g><text style="font: bold 20px Roboto, sans-serif; white-space: pre;" font-weight="bold" font-size="20px" font-family="Roboto, sans-serif"><tspan x="12" y="34" dominant-baseline="ideographic">Audience Engagement</tspan></text></g></g></g><g id="g-root-tx_viewerin_1q7lqi7lp2mtc-fill" data-item-order="0" transform="translate(482, 614.0000610351562)"><g id="tx_viewerin_1q7lqi7lp2mtc-fill" stroke="none" fill="#f4f4f4"><g><text style="font: 15px Roboto, sans-serif; white-space: pre;" font-size="15px" font-family="Roboto, sans-serif"><tspan x="12" y="27.6" dominant-baseline="ideographic">Viewer interaction affecting </tspan><tspan x="12" y="45.6" dominant-baseline="ideographic">CTR</tspan></text></g></g></g><g id="g-root-cp_0_g-0_1cwrp7zlp1729-stroke" data-item-order="-514790" transform="translate(182, 212.95001220703125)"><g id="cp_0_g-0_1cwrp7zlp1729-stroke" fill="none" stroke-linecap="round" stroke-linejoin="round" stroke-miterlimit="4" stroke="#b7b7b7" stroke-width="2"><g><path d="M 224.9 49.32L 207.01 65.32L 183.21 59.44L 177.03 64.96L 200.83 70.84L 182.95 86.84L 159.15 80.96L 33.7947 192.8277C 33.9295 193.5478 34 194.2906 34 195.0498C 34 201.6772 28.6274 207.0498 22 207.0498C 15.3726 207.0498 10 201.6772 10 195.0498C 10 188.4224 15.3726 183.0498 22 183.0498C 23.3911 183.0498 24.7269 183.2865 25.9693 183.7218L 151.01 72.14L 147.77 47.52L 165.66 31.52L 168.9 56.14L 175.08 50.61L 171.83 26L 189.72 10L 193.89 41.66L 224.9 49.32Z"></path></g></g><g id="cp_0_g-0_1cwrp7zlp1729-stroke" fill="none" stroke-linecap="round" stroke-linejoin="round" stroke-miterlimit="4" stroke="#b7b7b7" stroke-width="2"><g><path d="M 273.003906 18.705337C 288.758206 40.022137 301.728706 63.521337 311.378506 88.666137C 311.817306 88.529937 312.260406 88.401537 312.707806 88.280937C 312.996906 88.201237 313.286106 88.131337 313.575206 88.061637L 313.577806 88.060937C 314.820406 87.760837 316.064406 87.529237 317.305706 87.363837C 307.324606 61.119737 293.801606 36.621337 277.320706 14.452637C 276.877406 14.969837 276.417006 15.477437 275.939506 15.974637L 275.409506 16.504637C 274.633406 17.280737 273.830806 18.015137 273.003906 18.705337ZM 334.605606 156.778037C 333.792506 157.079937 332.963006 157.354737 332.117706 157.600937C 331.858106 157.690837 331.598506 157.760737 331.338906 157.830737L 331.337806 157.830937C 330.481006 158.062837 329.621606 158.259137 328.763506 158.423637C 330.239506 170.425437 330.999506 182.648837 330.999506 195.049637C 330.999506 207.457537 330.238606 219.687637 328.761006 231.695937C 329.615706 231.860737 330.470406 232.058337 331.322706 232.289837C 331.582706 232.359837 331.832606 232.429837 332.092606 232.509837C 332.945706 232.758437 333.782806 233.035937 334.603006 233.341237C 336.184506 220.800037 336.999506 208.020037 336.999506 195.049637C 336.999506 182.086237 336.185406 169.312837 334.605606 156.778037ZM 317.296906 302.758637C 316.027006 302.589237 314.754106 302.350537 313.482706 302.039837C 313.286506 301.994637 313.084606 301.943637 312.885706 301.891237C 312.821006 301.874237 312.756506 301.857037 312.692706 301.839837C 312.247506 301.720237 311.806106 301.592937 311.369006 301.458037C 301.723606 326.584537 288.762106 350.067537 273.020606 371.371337C 273.857606 372.068537 274.671306 372.809937 275.454506 373.593137C 275.644506 373.783137 275.824506 373.963137 276.004506 374.153137C 276.465106 374.633537 276.909806 375.123537 277.338606 375.622637C 293.806506 353.466837 307.320206 328.984537 317.296906 302.758637Z"></path></g></g></g><g id="g-root-cp_4_g-4_mah5kflp172c-stroke" data-item-order="-514784" transform="translate(38, 242.27996826171875)"><g id="cp_4_g-4_mah5kflp172c-stroke" fill="none" stroke-linecap="round" stroke-linejoin="round" stroke-miterlimit="4" stroke="#4f91fc" stroke-width="2"><g><path d="M 289.93 71.24L 271.98 87.3C 288.32 109.28 298 136.51 298 166C 298 238.9 238.9 298 166 298C 93.1 298 34 238.89 34 166C 34 93.11 93.1 34 166 34C 200.77 34 232.4 47.45 255.98 69.42L 273.93 53.36C 245.91 26.5 207.88 10 166 10C 79.84 10 10 79.83 10 166C 10 252.17 79.84 322 166 322C 252.16 322 322 252.16 322 166C 322 130.36 310.05 97.51 289.93 71.24Z"></path></g></g><g id="cp_4_g-4_mah5kflp172c-stroke" fill="none" stroke-linecap="round" stroke-linejoin="round" stroke-miterlimit="4" stroke="#4f91fc" stroke-width="2"><g><path d="M 419.455 395.173715C 405.395 409.233715 382.595 409.233715 368.545 395.173715C 354.485 381.113715 354.485 358.313715 368.545 344.263715C 381.325 331.473715 401.345 330.323715 415.435 340.793715C 416.835 341.833715 418.185 342.993715 419.455 344.263715C 419.645 344.453715 419.825 344.633715 420.005 344.823715C 433.515 358.913715 433.325 381.303715 419.455 395.173715Z"></path></g></g></g><g id="g-root-cp_3_g-3_1upanvzlp16vb-stroke" data-item-order="-514778" transform="translate(74, 278.27996826171875)"><g id="cp_3_g-3_1upanvzlp16vb-stroke" fill="none" stroke-linecap="round" stroke-linejoin="round" stroke-miterlimit="4" stroke="#1ac3fb" stroke-width="2"><g><path d="M 226.99 59.34L 208.99 75.44C 219.72 90.93 226 109.73 226 130C 226 183.02 183.02 226 130 226C 76.98 226 34 183.02 34 130C 34 76.98 76.98 34 130 34C 154.11 34 176.14 42.88 192.99 57.56L 210.99 41.46C 189.65 21.92 161.22 10 130 10C 63.73 10 10 63.73 10 130C 10 196.27 63.73 250 130 250C 196.27 250 250 196.27 250 130C 250 103.58 241.46 79.16 226.99 59.34Z"></path></g></g><g id="cp_3_g-3_1upanvzlp16vb-stroke" fill="none" stroke-linecap="round" stroke-linejoin="round" stroke-miterlimit="4" stroke="#1ac3fb" stroke-width="2"><g><path d="M 464.7832 211.050415C 459.7032 230.000415 440.4332 241.340415 421.4832 236.710415C 421.2232 236.650415 420.9532 236.580415 420.6932 236.510415C 418.9432 236.040415 417.2532 235.450415 415.6432 234.750415C 399.5432 227.770415 390.5632 209.870415 395.2332 192.420415C 399.9132 174.940415 416.6731 163.930415 434.1231 165.960415C 435.8531 166.160415 437.5932 166.490415 439.3232 166.960415C 439.5832 167.030415 439.8332 167.100415 440.0932 167.180415C 458.8332 172.640415 469.8532 192.110415 464.7832 211.050415Z"></path></g></g></g><g id="g-root-cp_2_g-2_1cyn4hblp162q-stroke" data-item-order="-514772" transform="translate(110, 290)"><g id="cp_2_g-2_1cyn4hblp162q-stroke" fill="none" stroke-linecap="round" stroke-linejoin="round" stroke-miterlimit="4" stroke="#43dd93" stroke-width="2"><g><path d="M 163.97 71.789785L 145.82 88.019785C 151.02 96.899785 154 107.239785 154 118.279785C 154 151.419785 127.14 178.279785 94 178.279785C 60.86 178.279785 34 151.419785 34 118.279785C 34 85.139785 60.86 58.279785 94 58.279785C 107.43 58.279785 119.82 62.689785 129.82 70.139785L 147.97 53.909785C 133.37 41.649785 114.55 34.279785 94 34.279785C 47.61 34.279785 10 71.889785 10 118.279785C 10 164.669785 47.61 202.279785 94 202.279785C 140.39 202.279785 178 164.669785 178 118.279785C 178 101.089785 172.84 85.099785 163.97 71.789785Z"></path></g></g><g id="cp_2_g-2_1cyn4hblp162q-stroke" fill="none" stroke-linecap="round" stroke-linejoin="round" stroke-miterlimit="4" stroke="#43dd93" stroke-width="2"><g><path d="M 404.118525 80.5513C 403.858525 80.6413 403.598525 80.7113 403.338525 80.7813C 401.638525 81.2413 399.928525 81.5613 398.238525 81.7713C 380.758525 83.8513 363.938525 72.8313 359.248525 55.3213C 354.558525 37.7913 363.638525 19.8113 379.878525 12.9013C 381.428525 12.2413 383.038525 11.6813 384.708525 11.2313C 384.998525 11.1513 385.288525 11.0813 385.578525 11.0113C 404.498525 6.4413 423.728525 17.7713 428.798525 36.6913C 433.868525 55.6313 422.858525 75.0913 404.118525 80.5513Z"></path></g></g></g><g id="g-root-cp_1_g-1_mccktrlp162t-stroke" data-item-order="-514766" transform="translate(146, 158)"><g id="cp_1_g-1_mccktrlp162t-stroke" fill="none" stroke-linecap="round" stroke-linejoin="round" stroke-miterlimit="4" stroke="#a6da37" stroke-width="2"><g><path d="M 106 250.279785C 106 276.789785 84.51 298.279785 58 298.279785C 31.49 298.279785 10 276.789785 10 250.279785C 10 223.769785 31.49 202.279785 58 202.279785C 67.86 202.279785 77.03 205.249785 84.65 210.349785L 65.49 227.479785C 63.13 226.699785 60.62 226.279785 58 226.279785C 44.75 226.279785 34 237.029785 34 250.279785C 34 263.529785 44.75 274.279785 58 274.279785C 71.25 274.279785 82 263.529785 82 250.279785C 82 248.599785 81.83 246.949785 81.49 245.369785L 100.65 228.229785C 104.07 234.829785 106 242.329785 106 250.279785Z"></path></g></g><g id="cp_1_g-1_mccktrlp162t-stroke" fill="none" stroke-linecap="round" stroke-linejoin="round" stroke-miterlimit="4" stroke="#a6da37" stroke-width="2"><g><path d="M 311.940078 70.925L 311.410078 71.455C 310.150078 72.715 308.820078 73.865 307.430078 74.895C 293.330078 85.405 273.290078 84.255 260.500078 71.455C 246.440078 57.405 246.440078 34.605 260.500078 20.545C 274.550078 6.485 297.350078 6.485 311.410078 20.545C 325.290078 34.425 325.470078 56.835 311.940078 70.925Z"></path></g></g></g><g id="g-root-tx_understa_4l2kbzlp18g0-stroke" data-item-order="0" transform="translate(236, 38)"></g><g id="g-root-tx_ctr_144vjhrlp15vt-stroke" data-item-order="0" transform="translate(482, 146)"></g><g id="g-root-ic_4_5vpm7lp5ds1-stroke" data-item-order="0" transform="translate(398, 170)"><g id="ic_4_5vpm7lp5ds1-stroke" fill="none" stroke-linecap="round" stroke-linejoin="round" stroke-miterlimit="4" stroke="#a6da37" stroke-width="2"><g><path d="M 43.133999 55.948002C 43.001999 56.481998 42.734001 56.498001 42.534 55.984001L 34.678001 35.313999C 34.478001 34.799999 34.743999 34.538002 35.257999 34.73L 56.014 42.514C 56.528 42.714001 56.514 42.973999 55.98 43.113998L 45.636002 45.700001ZM 50.562 34.834C 50.478001 35.195999 50.391998 35.557999 50.296001 35.917999M 34.956001 50.515999C 34.127998 50.618 33.312 50.82 32.478001 50.841999M 26.52 50.400002C 24.892807 50.030464 23.318481 49.457985 21.834 48.695999M 17.765999 45.931999C 16.512474 44.831909 15.398202 43.582634 14.448 42.212002M 11.84 36.832001C 11.36237 35.233986 11.080311 33.583939 11 31.918001M 11.338 27C 11.675068 25.365536 12.212459 23.778889 12.938 22.276001M 16.292 17.341999C 17.420328 16.112982 18.701416 15.033533 20.104 14.13M 24.538 11.988C 25.316 11.688 26.138 11.544 26.938 11.32C 27.77 11.218 28.586 11.018 29.42 11M 35.379997 11.427999C 37.007118 11.796837 38.581448 12.368649 40.066002 13.13M 44.132 15.903999C 45.387177 17.003757 46.502228 18.253822 47.452 19.625999M 50.060001 25C 50.537804 26.597979 50.819866 28.248047 50.900002 29.914001"></path></g></g></g><g id="g-root-tx_theperce_1464hnzlp181u-stroke" data-item-order="0" transform="translate(482, 182)"></g><g id="g-root-ic_play_qqau0flp5ero-stroke" data-item-order="0" transform="translate(470, 302)"><g id="ic_play_qqau0flp5ero-stroke" fill="none" stroke-linecap="round" stroke-linejoin="round" stroke-miterlimit="4" stroke="#43dd93" stroke-width="2"><g><path d="M 36 33L 54 33C 54 33 57 33 57 36L 57 54C 57 54 57 57 54 57L 36 57C 36 57 33 57 33 54L 33 36C 33 36 33 33 36 33M 41 45L 41 41.360001C 40.999901 41.050213 41.16642 40.764313 41.435921 40.611553C 41.705425 40.458794 42.036259 40.462784 42.301998 40.622002L 48.369999 44.262001C 48.629562 44.417294 48.78846 44.697529 48.78846 45C 48.78846 45.302471 48.629562 45.582706 48.369999 45.737999L 42.301998 49.377998C 42.036259 49.537216 41.705425 49.541206 41.435921 49.388447C 41.16642 49.235687 40.999901 48.949787 41 48.639999ZM 35.200001 28.200001C 34.083183 26.363276 33.527088 24.240376 33.599998 22.091999L 33.599998 19.6C 33.600002 14.850351 29.749651 11 25 11C 20.250351 11 16.400002 14.850351 16.400002 19.6L 16.4 22.091999C 16.472912 24.240376 15.916815 26.363276 14.8 28.200001M 16.4 21.012001C 19.702194 21.009018 22.840317 19.572052 25 17.073999C 27.159031 19.572918 30.297573 21.010078 33.599998 21.011999M 32.573997 20.966C 32.377029 25.005058 29.044857 28.178686 25.000999 28.178686C 20.957142 28.178686 17.624973 25.005058 17.427999 20.966M 27 31.142C 22.980003 30.565145 18.907505 31.76107 15.837696 34.419907C 12.767888 37.078743 11.002884 40.938828 11 45.000004L 27 45"></path></g></g></g><g id="g-root-tx_videothu_8zwq7lp16gz-stroke" data-item-order="0" transform="translate(554, 294)"></g><g id="g-root-tx_visualre_18ntf1rlp169w-stroke" data-item-order="0" transform="translate(554, 330)"></g><g id="g-root-ic_play_m98dprlp2lty-stroke" data-item-order="0" transform="translate(470, 446.00006103515625)"><g id="ic_play_m98dprlp2lty-stroke" fill="none" stroke-linecap="round" stroke-linejoin="round" stroke-miterlimit="4" stroke="#1ac3fb" stroke-width="2"><g><path d="M 36 33L 54 33C 54 33 57 33 57 36L 57 54C 57 54 57 57 54 57L 36 57C 36 57 33 57 33 54L 33 36C 33 36 33 33 36 33M 41 45L 41 41.360001C 40.999901 41.050213 41.16642 40.764313 41.435921 40.611553C 41.705425 40.458794 42.036259 40.462784 42.301998 40.622002L 48.369999 44.262001C 48.629562 44.417294 48.78846 44.697529 48.78846 45C 48.78846 45.302471 48.629562 45.582706 48.369999 45.737999L 42.301998 49.377998C 42.036259 49.537216 41.705425 49.541206 41.435921 49.388447C 41.16642 49.235687 40.999901 48.949787 41 48.639999ZM 27 31.142C 22.980003 30.565145 18.907505 31.76107 15.837696 34.419907C 12.767888 37.078743 11.002884 40.938828 11 45.000004L 27 45M 17.676001 15.184C 20.335285 17.942579 24.002348 19.500668 27.834 19.5C 29.755585 19.50161 31.657206 19.11026 33.421997 18.349998M 16.5 19.5C 16.5 24.19442 20.30558 28 25 28C 29.69442 28 33.5 24.19442 33.5 19.5C 33.5 14.80558 29.69442 11 25 11C 20.30558 11 16.5 14.80558 16.5 19.5"></path></g></g></g><g id="g-root-tx_videotit_8vw9rjlp2ln1-stroke" data-item-order="0" transform="translate(554, 442.00006103515625)"></g><g id="g-root-tx_textattr_1haps33lp2lfy-stroke" data-item-order="0" transform="translate(554, 478.00006103515625)"></g><g id="g-root-ic_1_qqanovlp2kg9-stroke" data-item-order="0" transform="translate(398, 578.0000610351562)"><g id="ic_1_qqanovlp2kg9-stroke" fill="none" stroke-linecap="round" stroke-linejoin="round" stroke-miterlimit="4" stroke="#4f91fc" stroke-width="2"><g><path d="M 14.874001 35C 14.874001 38.313709 17.560291 41 20.874001 41C 24.18771 41 26.874001 38.313709 26.874001 35C 26.874001 31.686293 24.18771 29 20.874001 29C 17.560291 29 14.874001 31.686293 14.874001 35ZM 15.704 31.954C 18.584326 34.937653 23.010609 35.827209 26.82 34.188M 12.874001 57L 12.874001 52C 12.874001 47.581722 16.455723 44 20.874001 44C 25.292278 44 28.874001 47.581722 28.874001 52L 28.874001 57M 40.874001 35C 40.874001 38.313709 43.560291 41 46.874001 41C 50.18771 41 52.874001 38.313709 52.874001 35C 52.874001 31.686293 50.18771 29 46.874001 29C 43.560291 29 40.874001 31.686293 40.874001 35ZM 40.973999 35.987999C 43.242992 35.957176 45.390369 34.957008 46.874001 33.239998C 48.358727 34.956688 50.506542 35.956722 52.776001 35.987999M 54.875999 57L 53 48.872002C 52.34177 46.019894 49.802074 43.999565 46.875 43.999565C 43.947926 43.999565 41.408226 46.019894 40.75 48.871998L 38.874001 57M 43.066002 45.285999L 46.866001 51L 50.666 45.287998M 35.874001 15.27L 35.874001 27.84C 35.872459 28.030075 35.979256 28.204449 36.149269 28.289457C 36.319283 28.374464 36.522861 28.355276 36.674 28.24C 39.176003 26.280001 45.695999 20.76 45.695999 16.440001C 45.695999 10.464 37.970001 8.488 35.874001 15.27ZM 31.874001 15.27L 31.874001 27.84C 31.877129 28.030779 31.770544 28.206438 31.599884 28.291769C 31.429224 28.3771 31.224745 28.35697 31.073999 28.24C 28.572001 26.280001 22.052 20.76 22.052 16.440001C 22.054001 10.464 29.780001 8.488 31.874001 15.27Z"></path></g></g></g><g id="g-root-tx_audience_dcyq27lp2n0v-stroke" data-item-order="0" transform="translate(482, 578.0000610351562)"></g><g id="g-root-tx_viewerin_1q7lqi7lp2mtc-stroke" data-item-order="0" transform="translate(482, 614.0000610351562)"></g></g></g><path id="w1q9hif3ht6vba" d="M65.283 12.757a.35.35 0 0 0 .584.157l5.203-5.141-6.183 3.523.396 1.461zm-2.216-11.7a.35.35 0 0 0-.522.305v3.111l3.276-1.868-2.754-1.548zm3.728 2.105l-4.25 2.421v2.445l6.391-3.644-2.141-1.222zm4.708 3.303a.35.35 0 0 0 0-.609l-1.592-.9-7.365 4.199v1.782a.35.35 0 0 0 .523.305l8.435-4.777z M44.542 2.513c0-.433.355-.783.792-.783s.792.35.792.783-.355.783-.792.783-.792-.35-.792-.783zm59.171 0c0-.433.355-.783.792-.783s.792.35.792.783-.355.783-.792.783-.792-.35-.792-.783zm-85.951 7.636h-1.27v-.487c-.276.201-.864.609-1.881.609-1.202 0-2.274-.794-2.137-2.078.118-1.106 1.153-1.584 1.848-1.727l2.17-.345c0-.539-.29-.956-1.064-1.006s-1.21.305-1.571 1.017l-1.124-.605c1.218-2.631 5.029-1.764 5.029.414v4.207zm-1.27-2.86c.006.396-.062 1.112-.819 1.59-.587.37-1.841.299-1.903-.395-.049-.555.461-.791.906-.898l1.816-.297zm72.662 2.86h-1.27v-.487c-.276.201-.864.609-1.881.609-1.202 0-2.274-.794-2.137-2.078.118-1.106 1.153-1.584 1.848-1.727l2.17-.345c0-.539-.29-.956-1.064-1.006s-1.21.305-1.571 1.017l-1.124-.605c1.218-2.631 5.029-1.764 5.029.414v4.207zm-1.27-2.86c.006.396-.062 1.112-.82 1.59-.587.37-1.841.299-1.903-.395-.049-.555.461-.791.906-.898l1.816-.297zM99.096 10.149H97.85v-8.45h1.246v4.895l2.68-2.559h1.738l-2.633 2.535 2.715 3.578h-1.556l-2.077-2.707-.867.844v1.863zm6.053-6.114h-1.255v6.113h1.255V4.035zm-59.2 0h-1.255v6.113h1.255V4.035zm5.584 6.113V1.697h1.255v2.695c.361-.346 1-.485 1.47-.485 1.452 0 2.477 1.082 2.457 2.448v3.792h-1.27v-3.68c0-.408-.214-1.339-1.315-1.339-.968 0-1.342.756-1.342 1.339v3.681h-1.255zm-4.76-4.894V4.039h.621a.45.45 0 0 0 .45-.45v-.855h1.251v1.305h1.309v1.215h-1.309v3.109c0 .293.105.664.648.664.365 0 .531-.035.736-.07v1.137s-.361.113-.857.113c-1.398 0-1.777-1.051-1.777-1.788V5.254h-1.071zM36.528 4.039h-1.394l2.191 6.106h1.125l1.234-3.918 1.238 3.918h1.129l2.188-6.106h-1.383l-1.359 3.93-1.256-3.93h-1.124l-1.242 3.957-1.348-3.957zM26.212 7.141c-.02 1.566 1.187 3.129 3.223 3.129 1.566 0 2.383-.918 2.734-1.719L31.172 8c-.315.399-.801 1.094-1.738 1.094-1.145 0-1.825-.781-1.891-1.52h4.625c.074-.284.148-.995-.03-1.559-.336-1.064-1.221-2.102-2.839-2.102s-3.088 1.152-3.088 3.227zm1.363-.75h3.348c-.055-.43-.566-1.301-1.623-1.301a1.79 1.79 0 0 0-1.725 1.301zm-8.758.75c.038 1.758 1.277 3.133 3.145 3.133 1.074 0 1.723-.477 1.961-.672v.547h1.242V1.703h-1.258v2.888c-.414-.36-1.062-.68-1.93-.68-1.91 0-3.198 1.473-3.16 3.23zm1.309-.08c0 1.119.723 1.978 1.836 1.978a1.88 1.88 0 0 0 1.94-1.904c0-1.371-1.011-1.99-1.972-1.99s-1.805.798-1.805 1.916zm76.683-.028C96.771 5.275 95.532 3.9 93.664 3.9c-1.074 0-1.723.477-1.961.672v-.547h-1.242v8.22h1.258V9.583c.414.36 1.063.68 1.93.68 1.91 0 3.198-1.473 3.16-3.23zm-1.309.08c0-1.119-.723-1.978-1.836-1.978a1.88 1.88 0 0 0-1.94 1.904c0 1.371 1.011 1.99 1.972 1.99S95.5 8.231 95.5 7.113zM106.441 10.173V4.036h1.254v.382c.361-.346 1-.485 1.47-.485 1.452 0 2.477 1.082 2.457 2.448v3.792h-1.27V6.492c0-.408-.214-1.339-1.315-1.339-.969 0-1.342.756-1.342 1.339v3.681h-1.254zm-30.383-.021V1.824h1.084l4.215 5.777V1.824h1.32v8.328h-1.094l-4.207-5.796v5.796h-1.319zM5.24 10.149H4V2.377h1.014l2.664 3.597 2.654-3.592h1.03v7.766h-1.256V4.762L7.678 8.068 5.24 4.742v5.407z" transform="translate(692, 722.0000610351562)" fill="#ababab88" stroke="none"></path></svg>