<?xml version="1.0" encoding="utf-8" standalone="yes"?>
<!DOCTYPE svg PUBLIC "-//W3C//DTD SVG 1.1//EN" "http://www.w3.org/Graphics/SVG/1.1/DTD/svg11.dtd">
<svg width="624" height="358" viewBox="0 0 624 358" style="fill:none;stroke:none;fill-rule:evenodd;clip-rule:evenodd;stroke-linecap:round;stroke-linejoin:round;stroke-miterlimit:1.5;" version="1.1" xmlns="http://www.w3.org/2000/svg" xmlns:xlink="http://www.w3.org/1999/xlink"><style class="text-font-style fontImports" data-font-family="Roboto">@import url('https://fonts.googleapis.com/css2?family=Roboto:wght@400;700&amp;display=block');</style><g id="items" style="isolation: isolate"><g id="blend" style="mix-blend-mode: normal"><g id="g-root-cr_2_cr-2_mfg94vndfle4-fill" data-item-order="-46650" transform="translate(409.99993896484375, 110)"><g id="cr_2_cr-2_mfg94vndfle4-fill" stroke="none" fill="#3b5649"><g><path d="M 10 64C 10 93.823377 34.176624 118 64 118C 93.823377 118 118 93.823377 118 64C 118 34.176624 93.823377 10 64 10C 34.176624 10 10 34.176624 10 64"></path></g></g></g><g id="g-root-cr_1_cr-1_93zqrjndfmz1-fill" data-item-order="-46646" transform="translate(85.99996948242188, 110)"><g id="cr_1_cr-1_93zqrjndfmz1-fill" stroke="none" fill="#3e4e69"><g><path d="M 10 64C 10 93.823377 34.176624 118 64 118C 93.823377 118 118 93.823377 118 64C 118 34.176624 93.823377 10 64 10C 34.176624 10 10 34.176624 10 64"></path></g></g></g><g id="g-root-tx_whichmon_vbpwsfnde8ln-fill" data-item-order="0" transform="translate(14, 38)"><g id="tx_whichmon_vbpwsfnde8ln-fill" stroke="none" fill="#f4f4f4"><g><text style="font: bold 25px Roboto, sans-serif; white-space: pre;" font-weight="bold" font-size="25px" font-family="Roboto, sans-serif"><tspan x="16.45" y="42.6" dominant-baseline="ideographic">Which monetization requirement to focus on first?</tspan></text></g></g></g><g id="g-root-ic_watc_1cuvku7ndh14y-fill" data-item-order="0" transform="translate(104, 128)"></g><g id="g-root-ic_ligh_1lt0nr3nd4etr-fill" data-item-order="0" transform="translate(266, 128)"></g><g id="g-root-ic_coll_93dcu7nde6f8-fill" data-item-order="0" transform="translate(428, 128)"></g><g id="g-root-tx_subscrib_1hap2ynndh0cp-fill" data-item-order="0" transform="translate(56, 230)"><g id="tx_subscrib_1hap2ynndh0cp-fill" stroke="none" fill="#4f91fc"><g><text style="font: 20px Roboto, sans-serif; white-space: pre;" font-size="20px" font-family="Roboto, sans-serif"><tspan x="17.41" y="34" dominant-baseline="ideographic">Subscriber Count</tspan></text></g></g></g><g id="g-root-tx_watchhou_dbp2rjndgzrj-fill" data-item-order="0" transform="translate(338, 230)"><g id="tx_watchhou_dbp2rjndgzrj-fill" stroke="none" fill="#43dd93"><g><text style="font: 20px Roboto, sans-serif; white-space: pre;" font-size="20px" font-family="Roboto, sans-serif"><tspan x="15.86" y="34" dominant-baseline="ideographic">Watch Hours/Shorts Views</tspan></text></g></g></g><g id="g-root-tx_buildcom_1ulj48vndh1xk-fill" data-item-order="0" transform="translate(44, 266)"><g id="tx_buildcom_1ulj48vndh1xk-fill" stroke="none" fill="#f4f4f4"><g><text style="font: 15px Roboto, sans-serif; white-space: pre;" font-size="15px" font-family="Roboto, sans-serif"><tspan x="15.24" y="30.6" dominant-baseline="ideographic">Build community and reach</tspan></text></g></g></g><g id="g-root-tx_createen_1uu9rgfndfl72-fill" data-item-order="0" transform="translate(380, 266)"><g id="tx_createen_1uu9rgfndfl72-fill" stroke="none" fill="#f4f4f4"><g><text style="font: 15px Roboto, sans-serif; white-space: pre;" font-size="15px" font-family="Roboto, sans-serif"><tspan x="12.27" y="30.6" dominant-baseline="ideographic">Create engaging content</tspan></text></g></g></g><g id="g-root-cr_2_cr-2_mfg94vndfle4-stroke" data-item-order="-46650" transform="translate(409.99993896484375, 110)"><g id="cr_2_cr-2_mfg94vndfle4-stroke" fill="none" stroke-linecap="round" stroke-linejoin="round" stroke-miterlimit="4" stroke="#43dd93" stroke-width="2"><g><path d="M 10 64C 10 93.823377 34.176624 118 64 118C 93.823377 118 118 93.823377 118 64C 118 34.176624 93.823377 10 64 10C 34.176624 10 10 34.176624 10 64"></path></g></g></g><g id="g-root-cr_1_cr-1_93zqrjndfmz1-stroke" data-item-order="-46646" transform="translate(85.99996948242188, 110)"><g id="cr_1_cr-1_93zqrjndfmz1-stroke" fill="none" stroke-linecap="round" stroke-linejoin="round" stroke-miterlimit="4" stroke="#4f91fc" stroke-width="2"><g><path d="M 10 64C 10 93.823377 34.176624 118 64 118C 93.823377 118 118 93.823377 118 64C 118 34.176624 93.823377 10 64 10C 34.176624 10 10 34.176624 10 64"></path></g></g></g><g id="g-root-tx_whichmon_vbpwsfnde8ln-stroke" data-item-order="0" transform="translate(14, 38)"></g><g id="g-root-ic_watc_1cuvku7ndh14y-stroke" data-item-order="0" transform="translate(104, 128)"><g id="ic_watc_1cuvku7ndh14y-stroke" fill="none" stroke-linecap="round" stroke-linejoin="round" stroke-miterlimit="4" stroke="#4f91fc" stroke-width="2"><g><path d="M 18.25 60.25C 18.25 63.977924 21.272078 67 25 67C 28.727921 67 31.75 63.977924 31.75 60.25C 31.75 56.522079 28.727921 53.5 25 53.5C 21.272078 53.5 18.25 56.522079 18.25 60.25ZM 38.5 80.5C 36.926388 74.328926 31.368551 70.010475 25 70.010475C 18.631451 70.010475 13.073612 74.328926 11.5 80.5M 60.25 60.25C 60.25 63.977924 63.272076 67 67 67C 70.727921 67 73.75 63.977924 73.75 60.25C 73.75 56.522079 70.727921 53.5 67 53.5C 63.272076 53.5 60.25 56.522079 60.25 60.25ZM 53.5 80.5C 55.073616 74.328926 60.631447 70.010475 67 70.010475C 73.368553 70.010475 78.926392 74.328926 80.5 80.5M 39.25 57.25C 39.25 60.977924 42.272079 64 46 64C 49.727921 64 52.75 60.977924 52.75 57.25C 52.75 53.522079 49.727921 50.5 46 50.5C 42.272079 50.5 39.25 53.522079 39.25 57.25ZM 57.744999 73.579002C 55.231781 69.504974 50.786846 67.024338 45.999996 67.024338C 41.21315 67.024338 36.768211 69.504974 34.255001 73.578995M 32.5 11.5L 28 16M 28 11.5L 32.5 16M 62.5 14.5L 58 19M 58 14.5L 62.5 19M 77.5 26.5L 73 31M 73 26.5L 77.5 31M 19 22L 14.5 26.5M 14.5 22L 19 26.5M 56.02 43.084C 58.427677 37.065811 62.960201 32.140453 68.758003 29.242001M 37 16L 38.181999 16.6C 44.938351 19.976372 49.560608 26.505619 50.5 34L 50.5 34M 25 25L 25 25C 34.314651 26.862091 41.982948 33.448891 45.229 42.375999L 46 44.5"></path></g></g></g><g id="g-root-ic_ligh_1lt0nr3nd4etr-stroke" data-item-order="0" transform="translate(266, 128)"><g id="ic_ligh_1lt0nr3nd4etr-stroke" fill="none" stroke-linecap="round" stroke-linejoin="round" stroke-miterlimit="4" stroke="#f4f4f4" stroke-width="2"><g><path d="M 43.7155 60.25L 41.78965 75.448456C 41.6017 76.932404 43.444153 77.732651 44.395 76.57795C 47.01955 73.3909 50.811699 68.769402 54.856899 63.833954M 69.831848 45.546398C 71.379852 43.654751 72.706451 42.033249 73.705299 40.812103C 74.506447 39.832748 73.809097 38.36335 72.543854 38.36335L 69.158348 38.36335M 25.079649 52.911999L 19.49548 52.911999C 18.223511 52.911999 17.52829 51.428951 18.342926 50.452148L 22.779266 45.132549M 35.112999 30.346449C 39.87685 24.636566 44.504349 19.091724 47.564949 15.428576C 48.525852 14.278646 50.384201 15.095304 50.190849 16.581249L 48.589302 28.888599M 40.897453 54.801849L 46.692249 35.308601C 46.978149 34.346951 46.257702 33.3811 45.254501 33.3811L 42.439301 33.3811C 41.771049 33.3811 41.18335 33.823151 40.9981 34.465149L 36.3946 50.412849C 36.289299 50.77795 35.77 50.772701 35.67205 50.405647L 31.4233 34.494099C 31.2481 33.8377 30.6535 33.3811 29.97415 33.3811L 26.994999 33.3811C 25.99645 33.3811 25.276749 34.338249 25.553949 35.297501L 31.17985 54.7687C 31.7362 56.694099 33.498852 58.019501 35.503002 58.019501L 36.584049 58.019501C 38.575451 58.019501 40.329998 56.710602 40.897453 54.801849ZM 55.995251 52.8979C 54.671501 52.8979 53.315948 52.649349 52.157799 52.296249C 51.212952 52.008099 50.137451 52.530552 49.935249 53.497299L 49.494553 55.60405C 49.356548 56.263451 49.675148 56.93755 50.312199 57.156551C 51.677353 57.6259 53.664398 58.020248 55.7164 58.020248C 62.197296 58.020248 65.500153 54.6562 65.500153 50.398453C 65.500153 47.324951 63.797348 44.9491 59.738503 43.285149C 56.776901 42.0355 55.727348 41.490551 55.727348 40.328049C 55.727348 39.259899 56.758598 38.467899 58.703651 38.467899C 59.83075 38.467899 60.802898 38.636799 61.608551 38.862099C 62.52655 39.118752 63.545498 38.638149 63.765404 37.710701L 64.243744 35.694248C 64.408752 34.998253 64.061646 34.273598 63.381096 34.053402C 62.162048 33.658901 60.618248 33.381851 58.743996 33.381851C 52.776852 33.381851 49.470402 36.687851 49.470402 40.843899C 49.470402 43.873749 51.5695 46.227848 55.602547 47.924351C 58.15675 48.945248 59.221001 49.66465 59.221001 50.874397C 59.221001 52.084152 58.112801 52.8979 55.995251 52.8979Z"></path></g></g></g><g id="g-root-ic_coll_93dcu7nde6f8-stroke" data-item-order="0" transform="translate(428, 128)"><g id="ic_coll_93dcu7nde6f8-stroke" fill="none" stroke-linecap="round" stroke-linejoin="round" stroke-miterlimit="4" stroke="#43dd93" stroke-width="2"><g><path d="M 38.127941 72.989204C 38.127941 76.302704 40.814201 78.989204 44.128002 78.989204L 62.709396 78.989204C 66.023201 78.989204 68.709396 76.302704 68.709396 72.989204L 68.709396 70.462303C 68.894798 70.638397 69.104202 70.792297 69.334602 70.918304L 74.608597 73.807297C 76.607803 74.902596 79.049797 73.456001 79.049797 71.1763L 79.049797 60.042702C 79.049797 57.763298 76.607803 56.3167 74.608597 57.411697L 69.334602 60.300697C 69.104202 60.427002 68.894798 60.580902 68.709396 60.757004L 68.709396 58.225597C 68.709396 54.9118 66.023201 52.225601 62.709396 52.225601L 44.128002 52.225601C 40.814201 52.225601 38.127941 54.9118 38.127941 58.225597L 38.127941 72.989204ZM 10 10M 64.266701 44.5462L 64.266701 19.007771C 64.266701 15.69406 61.5802 13.00777 58.266701 13.00777L 18.956049 13.00777C 15.64234 13.00777 12.956053 15.69406 12.956053 19.007771L 12.956053 57.598602C 12.956056 60.912399 15.64234 63.598598 18.956049 63.598598L 30.293711 63.598598M 10 10M 38.127941 13.00879L 38.127941 44.5438M 10 10M 64.266701 38.303711L 12.950194 38.303711"></path></g></g></g><g id="g-root-tx_subscrib_1hap2ynndh0cp-stroke" data-item-order="0" transform="translate(56, 230)"></g><g id="g-root-tx_watchhou_dbp2rjndgzrj-stroke" data-item-order="0" transform="translate(338, 230)"></g><g id="g-root-tx_buildcom_1ulj48vndh1xk-stroke" data-item-order="0" transform="translate(44, 266)"></g><g id="g-root-tx_createen_1uu9rgfndfl72-stroke" data-item-order="0" transform="translate(380, 266)"></g></g></g><path id="w1d15ahbnd5ssi" d="M65.283 12.757a.35.35 0 0 0 .584.157l5.203-5.141-6.183 3.523.396 1.461zm-2.216-11.7a.35.35 0 0 0-.522.305v3.111l3.276-1.868-2.754-1.548zm3.728 2.105l-4.25 2.421v2.445l6.391-3.644-2.141-1.222zm4.708 3.303a.35.35 0 0 0 0-.609l-1.592-.9-7.365 4.199v1.782a.35.35 0 0 0 .523.305l8.435-4.777z M44.542 2.513c0-.433.355-.783.792-.783s.792.35.792.783-.355.783-.792.783-.792-.35-.792-.783zm59.171 0c0-.433.355-.783.792-.783s.792.35.792.783-.355.783-.792.783-.792-.35-.792-.783zm-85.951 7.636h-1.27v-.487c-.276.201-.864.609-1.881.609-1.202 0-2.274-.794-2.137-2.078.118-1.106 1.153-1.584 1.848-1.727l2.17-.345c0-.539-.29-.956-1.064-1.006s-1.21.305-1.571 1.017l-1.124-.605c1.218-2.631 5.029-1.764 5.029.414v4.207zm-1.27-2.86c.006.396-.062 1.112-.819 1.59-.587.37-1.841.299-1.903-.395-.049-.555.461-.791.906-.898l1.816-.297zm72.662 2.86h-1.27v-.487c-.276.201-.864.609-1.881.609-1.202 0-2.274-.794-2.137-2.078.118-1.106 1.153-1.584 1.848-1.727l2.17-.345c0-.539-.29-.956-1.064-1.006s-1.21.305-1.571 1.017l-1.124-.605c1.218-2.631 5.029-1.764 5.029.414v4.207zm-1.27-2.86c.006.396-.062 1.112-.82 1.59-.587.37-1.841.299-1.903-.395-.049-.555.461-.791.906-.898l1.816-.297zM99.096 10.149H97.85v-8.45h1.246v4.895l2.68-2.559h1.738l-2.633 2.535 2.715 3.578h-1.556l-2.077-2.707-.867.844v1.863zm6.053-6.114h-1.255v6.113h1.255V4.035zm-59.2 0h-1.255v6.113h1.255V4.035zm5.584 6.113V1.697h1.255v2.695c.361-.346 1-.485 1.47-.485 1.452 0 2.477 1.082 2.457 2.448v3.792h-1.27v-3.68c0-.408-.214-1.339-1.315-1.339-.968 0-1.342.756-1.342 1.339v3.681h-1.255zm-4.76-4.894V4.039h.621a.45.45 0 0 0 .45-.45v-.855h1.251v1.305h1.309v1.215h-1.309v3.109c0 .293.105.664.648.664.365 0 .531-.035.736-.07v1.137s-.361.113-.857.113c-1.398 0-1.777-1.051-1.777-1.788V5.254h-1.071zM36.528 4.039h-1.394l2.191 6.106h1.125l1.234-3.918 1.238 3.918h1.129l2.188-6.106h-1.383l-1.359 3.93-1.256-3.93h-1.124l-1.242 3.957-1.348-3.957zM26.212 7.141c-.02 1.566 1.187 3.129 3.223 3.129 1.566 0 2.383-.918 2.734-1.719L31.172 8c-.315.399-.801 1.094-1.738 1.094-1.145 0-1.825-.781-1.891-1.52h4.625c.074-.284.148-.995-.03-1.559-.336-1.064-1.221-2.102-2.839-2.102s-3.088 1.152-3.088 3.227zm1.363-.75h3.348c-.055-.43-.566-1.301-1.623-1.301a1.79 1.79 0 0 0-1.725 1.301zm-8.758.75c.038 1.758 1.277 3.133 3.145 3.133 1.074 0 1.723-.477 1.961-.672v.547h1.242V1.703h-1.258v2.888c-.414-.36-1.062-.68-1.93-.68-1.91 0-3.198 1.473-3.16 3.23zm1.309-.08c0 1.119.723 1.978 1.836 1.978a1.88 1.88 0 0 0 1.94-1.904c0-1.371-1.011-1.99-1.972-1.99s-1.805.798-1.805 1.916zm76.683-.028C96.771 5.275 95.532 3.9 93.664 3.9c-1.074 0-1.723.477-1.961.672v-.547h-1.242v8.22h1.258V9.583c.414.36 1.063.68 1.93.68 1.91 0 3.198-1.473 3.16-3.23zm-1.309.08c0-1.119-.723-1.978-1.836-1.978a1.88 1.88 0 0 0-1.94 1.904c0 1.371 1.011 1.99 1.972 1.99S95.5 8.231 95.5 7.113zM106.441 10.173V4.036h1.254v.382c.361-.346 1-.485 1.47-.485 1.452 0 2.477 1.082 2.457 2.448v3.792h-1.27V6.492c0-.408-.214-1.339-1.315-1.339-.969 0-1.342.756-1.342 1.339v3.681h-1.254zm-30.383-.021V1.824h1.084l4.215 5.777V1.824h1.32v8.328h-1.094l-4.207-5.796v5.796h-1.319zM5.24 10.149H4V2.377h1.014l2.664 3.597 2.654-3.592h1.03v7.766h-1.256V4.762L7.678 8.068 5.24 4.742v5.407z" transform="translate(498, 334)" fill="#ababab88" stroke="none"></path></svg>